# xmcd
#
# Track frame offsets: 
#        150
#        11099
#        22668
#        33524
#        45551
#        58737
#        74655
#        91769
#        102296
#        118467
#        130392
#        143041
#        152689
#        168270
#        177691
#        191410
#
# Disc length: 3169 seconds
#
# Revision: 0
# Processed by: cddbd v1.5.2PL0 Copyright (c) Steve Scherf et al.
# Submitted via: ExactAudioCopy v0.95b4
#
DISCID=dd0c5f10
DTITLE=Rooster Burns and the Stetson Revolting - Rooster Burns and the
DTITLE=Stetson Revolting
DYEAR=2008
DGENRE=Country
TTITLE0=Don't wanna grow up
TTITLE1=Forbidden Beat
TTITLE2=Paranoid
TTITLE3=Pet Cemetary
TTITLE4=Highway to Hell
TTITLE5=Die, die, die my darling
TTITLE6=White Wedding
TTITLE7=Ace of Spades
TTITLE8=I'm only happy when it rains
TTITLE9=Showdown in Banjo Valley
TTITLE10=Anarchy in Tennessee
TTITLE11=I'm on fire
TTITLE12=Too drunk to fuck
TTITLE13=All my friends are dead
TTITLE14=Hate to say I told you so
TTITLE15=Trash test Rodeo
EXTD=
EXTT0=
EXTT1=
EXTT2=
EXTT3=
EXTT4=
EXTT5=
EXTT6=
EXTT7=
EXTT8=
EXTT9=
EXTT10=
EXTT11=
EXTT12=
EXTT13=
EXTT14=
EXTT15=
PLAYORDER=
